<svg xmlns="http://www.w3.org/2000/svg" data-name="Layer 1" viewBox="0 0 128 160" x="0px" y="0px"><path d="M48.1992,37.92315l-.0006-.00045a3.08649,3.08649,0,0,0-4.36352-.12572L33.82223,47.25149a2.07785,2.07785,0,0,0,.00558,3.02689l10.01647,9.38727a3.08644,3.08644,0,0,0,4.36276-.14154h.00015a3.08678,3.08678,0,0,0-.14139-4.36246L41.227,48.75107l6.84668-6.46516A3.08651,3.08651,0,0,0,48.1992,37.92315Z"/><path d="M84.16672,37.79668a3.08662,3.08662,0,0,0-4.23885,4.48788l6.84472,6.46605L79.936,55.16074a3.08654,3.08654,0,0,0-.14064,4.36261l.00136.00151a3.08652,3.08652,0,0,0,4.36306.14079l10.0127-9.38787a2.07765,2.07765,0,0,0,.00543-3.02629Z"/><path d="M69.26789,33.83866a3.08769,3.08769,0,0,0-3.94008,1.88126L56.85252,59.675a3.0877,3.0877,0,1,0,5.82178,2.05973L71.14959,37.7798A3.08779,3.08779,0,0,0,69.26789,33.83866Z"/><path d="M120.18429,3.86462H7.81556a5.93884,5.93884,0,0,0-5.90771,5.9252V94.562a5.91646,5.91646,0,0,0,5.90771,5.925H52.16717v11.81557H43.29679a5.91637,5.91637,0,0,0-5.90771,5.925v5.90771H90.61092v-5.90771a5.91647,5.91647,0,0,0-5.90771-5.925H75.833V100.48705h44.35131a5.9165,5.9165,0,0,0,5.90786-5.925V9.78982A5.91641,5.91641,0,0,0,120.18429,3.86462Zm-2.96237,79.37565H10.77823V14.21438H117.22192Z"/><text x="0" y="143" fill="#000000" font-size="5px" font-weight="bold" font-family="'Helvetica Neue', Helvetica, Arial-Unicode, Arial, Sans-serif">Created by visual language</text><text x="0" y="148" fill="#000000" font-size="5px" font-weight="bold" font-family="'Helvetica Neue', Helvetica, Arial-Unicode, Arial, Sans-serif">from the Noun Project</text></svg>