<?xml version="1.0" standalone="no"?>
<!DOCTYPE svg PUBLIC "-//W3C//DTD SVG 20010904//EN"
 "http://www.w3.org/TR/2001/REC-SVG-20010904/DTD/svg10.dtd">
<svg version="1.0" xmlns="http://www.w3.org/2000/svg"
 width="1200.000000pt" height="1200.000000pt" viewBox="0 0 1200.000000 1200.000000"
 preserveAspectRatio="xMidYMid meet">
<metadata>
Created by potrace 1.14, written by Peter Selinger 2001-2017
</metadata>
<g transform="translate(0.000000,1200.000000) scale(0.100000,-0.100000)"
fill="#000000" stroke="none">
<path d="M2713 9415 c-17 -7 -41 -28 -54 -46 l-24 -34 0 -1160 c0 -930 3
-1166 13 -1191 7 -17 28 -42 45 -55 l32 -24 1697 0 1696 0 35 65 c79 147 218
531 238 655 6 33 12 74 15 90 7 43 43 175 57 209 32 77 122 252 138 266 3 3
20 26 37 52 18 25 70 86 117 135 l85 88 0 430 c0 481 0 480 -70 517 -34 17
-111 18 -2031 17 -1584 -1 -2002 -4 -2026 -14z m1203 -548 c54 -28 77 -101 51
-160 -7 -15 -124 -139 -261 -277 l-249 -249 263 -265 c145 -146 266 -274 268
-283 19 -83 -18 -152 -91 -168 -69 -16 -79 -9 -382 294 -159 159 -297 306
-308 327 -25 50 -26 137 -2 189 25 51 551 580 597 599 39 17 71 15 114 -7z
m1072 4 c34 -18 63 -68 64 -109 0 -39 -5 -51 -262 -547 -37 -71 -127 -247
-200 -390 -172 -334 -161 -316 -200 -342 -63 -44 -145 -20 -179 50 -11 23 -18
53 -16 67 2 21 61 151 95 210 5 8 33 62 63 120 29 58 92 179 139 270 47 91
138 269 203 395 65 127 124 237 132 247 36 42 112 55 161 29z m451 -1 c14 -7
150 -138 304 -291 298 -296 319 -323 318 -411 0 -94 -21 -122 -320 -419 -293
-291 -303 -298 -375 -285 -75 14 -119 114 -82 184 8 15 125 137 260 272 l246
245 -264 265 c-279 281 -286 290 -265 361 13 46 30 66 70 83 38 16 73 15 108
-4z"/>
<path d="M7490 8637 c-119 -23 -228 -60 -331 -112 -59 -29 -87 -46 -174 -105
-12 -8 -49 -40 -81 -70 -224 -209 -350 -459 -390 -779 -3 -19 -7 -38 -10 -42
-3 -5 -7 -17 -9 -26 -23 -118 -200 -569 -227 -581 -5 -2 -8 -12 -8 -23 0 -10
-4 -19 -10 -19 -5 0 -10 -5 -10 -10 0 -11 -76 -126 -99 -150 -27 -28 -55 -121
-52 -177 3 -65 84 -212 119 -213 6 0 12 -4 12 -9 0 -9 5 -11 65 -31 84 -29
236 -32 344 -6 137 32 266 122 329 228 9 15 21 29 27 32 6 2 35 -11 63 -30
100 -68 275 -142 372 -159 19 -3 53 -11 75 -16 22 -6 105 -11 185 -11 173 0
280 20 435 80 97 38 108 44 269 151 l29 20 20 -37 c72 -135 179 -230 297 -262
47 -13 210 -16 269 -5 63 11 139 55 185 106 61 68 85 134 83 229 -2 95 -33
164 -110 246 -93 100 -141 173 -186 287 -28 71 -68 205 -77 256 -3 14 -8 35
-11 46 -3 11 -7 30 -9 42 -1 12 -5 34 -8 50 -4 15 -8 39 -11 53 -34 190 -111
395 -201 536 -99 155 -278 315 -447 400 -79 40 -228 92 -289 100 -24 4 -52 10
-64 14 -28 11 -307 9 -364 -3z m213 -861 c118 -160 267 -283 437 -361 142 -65
135 -54 144 -224 3 -60 12 -153 21 -207 22 -137 23 -144 35 -184 26 -83 21
-99 -40 -140 -12 -8 -32 -22 -44 -31 -32 -24 -165 -93 -216 -112 -190 -69
-420 -81 -610 -32 -151 39 -305 118 -410 210 -62 54 -125 119 -150 155 -13 19
-27 37 -31 40 -19 14 -127 223 -134 259 -2 9 -4 16 -5 16 -1 0 -4 14 -6 30 -3
17 -9 34 -15 39 -5 6 -9 24 -9 40 0 17 -4 37 -9 45 -17 26 10 51 54 51 66 0
194 38 290 85 196 96 376 267 515 488 l43 68 44 -82 c24 -46 67 -115 96 -153z"/>
<path d="M7294 6192 c-46 -7 -61 -13 -85 -34 -30 -26 -48 -79 -44 -127 2 -29
0 -31 -29 -32 -86 -2 -242 -28 -291 -49 -11 -4 -47 -18 -80 -31 -119 -46 -247
-132 -341 -231 -28 -29 -104 -116 -169 -193 -64 -77 -136 -162 -160 -190 -23
-27 -94 -111 -156 -185 -62 -74 -116 -137 -119 -140 -3 -3 -41 -48 -85 -100
-43 -52 -93 -111 -111 -130 -18 -19 -53 -60 -79 -90 -26 -30 -59 -68 -74 -85
-14 -16 -73 -85 -130 -153 -62 -74 -118 -130 -140 -141 -36 -18 -79 -18 -111
-1 -13 7 -365 293 -465 378 -11 10 -84 70 -162 135 -103 85 -165 146 -220 215
-163 204 -310 362 -443 473 -36 30 -67 56 -70 59 -3 3 -45 39 -95 80 -49 41
-103 87 -120 102 -141 130 -351 59 -361 -122 -3 -62 14 -96 105 -219 43 -58
81 -119 84 -136 3 -19 -6 -64 -26 -125 -53 -162 -44 -293 27 -401 52 -78 218
-230 339 -310 34 -23 100 -81 147 -129 47 -49 150 -155 230 -237 80 -82 253
-261 385 -398 132 -136 270 -278 307 -315 152 -153 315 -222 506 -215 167 6
305 67 454 200 33 30 142 123 187 160 13 11 33 29 45 40 12 11 44 38 71 60 28
22 52 43 55 46 3 3 55 48 115 99 61 52 113 98 116 102 3 5 0 34 -7 66 -8 37
-12 173 -13 391 -1 300 0 336 15 352 22 25 65 24 92 -1 22 -21 22 -25 22 -339
0 -275 5 -365 24 -436 2 -5 6 -23 11 -40 15 -60 86 -182 136 -236 28 -30 55
-64 60 -77 5 -13 9 -247 9 -525 0 -473 1 -504 19 -533 40 -65 -56 -61 1436
-61 1300 0 1356 1 1385 18 17 11 39 33 49 49 18 30 18 77 18 1168 0 626 -4
1169 -8 1207 -16 134 -19 151 -45 240 -32 112 -105 267 -174 371 -66 98 -241
273 -338 337 -188 125 -440 215 -617 220 -25 0 -46 4 -46 7 -1 3 -3 23 -4 46
-4 56 -29 106 -65 127 -27 17 -71 18 -488 20 -252 1 -467 1 -478 -1z m-182
-393 c114 -45 229 -72 373 -88 82 -9 414 -7 473 3 17 3 44 8 60 10 46 7 154
36 212 57 114 42 118 43 145 29 14 -8 28 -24 32 -38 9 -39 -15 -69 -76 -92
-31 -12 -66 -26 -78 -31 -22 -8 -129 -37 -168 -45 -112 -23 -179 -28 -355 -28
-257 -1 -328 5 -485 44 -115 29 -220 68 -240 90 -24 27 -22 70 5 92 28 23 38
23 102 -3z m-3518 -312 c238 -199 338 -300 501 -503 112 -139 146 -177 190
-211 6 -5 32 -26 58 -47 l48 -40 -30 -28 c-27 -25 -34 -27 -73 -19 -49 9 -62
8 -110 -8 -90 -30 -147 -144 -116 -233 9 -25 6 -32 -26 -65 l-36 -38 -93 91
c-50 50 -128 115 -172 145 -43 30 -123 96 -177 147 -154 148 -175 216 -121
384 35 108 34 105 35 160 0 62 -17 113 -61 173 -19 28 -38 52 -41 55 -18 15
-90 125 -90 138 0 7 8 27 17 42 18 31 55 42 87 27 10 -5 105 -81 210 -170z
m4475 -176 c43 -31 59 -89 40 -144 -19 -56 -65 -86 -123 -82 -78 5 -122 53
-120 129 2 106 115 159 203 97z m-7 -505 c76 -54 73 -169 -5 -216 -112 -69
-240 55 -176 170 36 63 124 86 181 46z m-3525 -243 c289 -241 475 -390 508
-404 62 -29 149 -25 216 9 44 22 80 57 189 182 74 85 138 155 142 155 4 0 143
-135 308 -300 l301 -300 -33 -29 c-18 -15 -55 -48 -83 -72 -27 -23 -135 -116
-240 -205 -104 -89 -203 -173 -220 -188 -104 -91 -185 -136 -283 -156 -81 -17
-193 -12 -265 13 -127 43 -155 68 -746 680 -45 48 -119 124 -164 169 l-80 82
38 39 c34 37 40 39 67 30 75 -26 166 9 219 84 26 35 36 118 21 158 -9 21 -5
30 21 58 17 18 34 31 38 30 4 -2 25 -17 46 -35z m2869 -267 c20 -27 18 -70 -5
-90 -16 -14 -46 -17 -227 -17 -295 0 -288 0 -307 14 -37 26 -27 90 16 106 12
5 131 8 265 7 229 -1 244 -2 258 -20z m2024 -1011 l0 -775 -30 0 c-16 -1 -104
-1 -195 -1 -91 0 -203 0 -249 1 l-84 0 -1 83 c-1 45 -4 105 -6 132 -2 28 -6
113 -10 190 -3 77 -8 169 -10 205 -2 36 -6 128 -10 205 -3 77 -8 172 -10 210
-10 173 -18 354 -18 392 0 49 35 108 73 122 14 5 143 10 288 10 l262 1 0 -775z"/>
</g>
</svg>
